<?xml version="1.0" encoding="UTF-8" standalone="no"?>
<!-- Created with Inkscape (http://www.inkscape.org/) -->

<svg
   version="1.1"
   id="svg1"
   width="2001.3333"
   height="2000"
   viewBox="0 0 2001.3333 2000"
   xmlns="http://www.w3.org/2000/svg"
   xmlns:svg="http://www.w3.org/2000/svg">
  <defs
     id="defs1" />
  <g
     id="g1">
    <path
       style="fill:#000000"
       d="m 737.55128,1825.199 c 0.31508,-1.0261 6.83748,-5.1102 14.49421,-9.0758 21.3194,-11.0416 31.40386,-22.4791 38.81659,-44.0246 1.38035,-4.0121 4.92151,-18.8965 7.86925,-33.0765 5.56369,-26.764 9.44974,-39.4141 16.28629,-53.0161 7.8614,-15.6411 9.52863,-22.738 10.9503,-46.6123 0.56132,-9.4262 -0.90742,-40.2335 -2.60879,-54.7202 -1.41967,-12.0881 -3.43651,-31.5928 -4.75725,-46.0068 -1.45535,-15.8832 -1.83985,-64.1817 -0.64851,-81.4622 0.37429,-5.4291 1.30616,-19.1712 2.07082,-30.5378 1.96821,-29.2574 2.35016,-32.0687 6.86015,-50.4929 3.15299,-12.8806 3.81885,-17.8451 3.04017,-22.6667 -0.54838,-3.3956 -1.12612,-23.8738 -1.28385,-45.5071 -0.1886,-25.8656 -1.03517,-45.9531 -2.47246,-58.6667 C 824.96608,1238.7 823.67015,1226.4 823.28836,1222 c -0.3818,-4.4 -0.97681,-11 -1.32226,-14.6667 -0.34544,-3.6666 -0.71113,-11.3319 -0.81264,-17.0339 -0.10151,-5.702 -0.55257,-10.5678 -1.00236,-10.8129 -0.44979,-0.2451 -19.1178,19.9313 -41.48446,44.8365 -22.36667,24.9051 -52.06667,57.3982 -66,72.2069 -31.17522,33.1336 -49.51163,53.3629 -104.05568,114.7973 -57.4656,64.7251 -88.89201,98.1696 -90.62117,96.4404 -0.40303,-0.403 21.68924,-38.1656 49.09391,-83.9169 27.40468,-45.7512 88.39668,-147.684 135.53778,-226.5174 80.3023,-134.2883 101.2418,-169.2044 102.28349,-170.5555 0.23558,-0.3056 0.78994,-0.194 1.23191,0.248 0.44197,0.442 -4.73781,10.292 -11.51063,21.8889 -31.56596,54.0496 -143.35621,240.6409 -185.97746,310.4186 -7.16689,11.7334 -20.05501,33.3334 -28.64028,48 -19.73403,33.7127 -36.7913,62.6671 -40.39477,68.5694 -3.03798,4.9761 -2.53043,4.8479 6.74241,-1.702 3.12924,-2.2104 8.19341,-7.3598 11.25373,-11.4431 5.86253,-7.8223 7.12752,-9.2221 109.12466,-120.7576 35.54286,-38.8667 76.91784,-84.144 91.9444,-100.6162 15.02657,-16.4722 34.95706,-38.0722 44.28999,-48 l 16.96896,-18.0505 0.031,-8.3333 c 0.0171,-4.5833 -0.43775,-8.3333 -1.0107,-8.3333 -1.31454,0 -13.12983,12.2977 -24.33954,25.3333 -4.72961,5.5 -37.7307,42.1 -73.33575,81.3333 -35.60506,39.2334 -72.87095,80.9334 -82.8131,92.6667 -17.66379,20.8461 -38.00067,41.5803 -39.40556,40.1754 -1.23422,-1.2342 10.0193,-20.7648 26.22211,-45.5087 8.64362,-13.2 22.46103,-35.1 30.70536,-48.6667 16.23079,-26.709 29.71842,-48.803 40.69764,-66.6667 68.36395,-111.2309 109.43987,-180.197 119.38554,-200.4472 7.8237,-15.9297 11.81674,-21.9986 14.5917,-22.1776 0.36667,-0.024 0.27447,9.1072 -0.20488,20.2909 -1.87678,43.7866 -2.57646,57.9745 -3.23838,65.6673 -3.13457,36.4293 -4.02647,91.4945 -1.92071,118.5833 0.73752,9.4875 3.40427,29.8875 5.92612,45.3333 2.52185,15.4459 4.99736,31.5429 5.50113,35.7712 1.09674,9.2053 3.06978,10.8169 9.80021,8.0047 10.19259,-4.2587 23.77091,0.2717 35.66283,11.8989 l 6.85965,6.7069 0.23354,-9.8158 c 0.41451,-17.4223 0.11377,-20.2704 -3.21611,-30.458 -12.92619,-39.5471 -23.47842,-111.9659 -25.55163,-175.3579 -1.11426,-34.0705 2.28511,-97.248 5.40021,-100.3631 1.81032,-1.8103 2.38581,1.9033 2.6783,17.2833 0.86474,45.4689 20.90142,106.4472 45.67068,138.9911 10.0889,13.2557 12.78837,15.5661 15.27818,13.0763 2.91272,-2.9128 8.65982,-59.5959 9.77416,-96.4018 0.51203,-16.9119 0.34004,-18.5284 -2.66034,-25.0044 -3.73687,-8.0657 -30.60854,-35.835 -48.32999,-49.9445 l -11.00369,-8.761 5.00369,-1.55101 c 2.75203,-0.85307 8.72078,-3.40612 13.26389,-5.67343 l 8.26019,-4.12239 5.73981,2.50513 c 16.86342,7.36001 29.60465,19.4039 33.45742,31.6263 2.3871,7.5728 5.15884,11.1913 7.47558,9.7595 0.7205,-0.4453 3.2129,-4.1356 5.53865,-8.2006 5.54094,-9.6845 24.27413,-29.26683 37.61337,-39.31825 20.96583,-15.79822 42.32143,-23.94103 83.67493,-31.90498 l 20.0579,-3.86281 4.961,3.36747 c 4.7611,3.23182 8.3388,3.50693 17.9118,1.37738 0.8862,-0.19715 2.7054,71.57659 2.3758,93.73179 -0.1412,9.4891 -0.038,9.8465 2.2627,7.8244 1.3259,-1.1654 3.7613,-2.5306 5.4121,-3.0336 4.1516,-1.2652 5.0259,-3.42 7.7605,-19.1267 2.088,-11.993 2.1978,-15.7661 0.8695,-29.8845 -0.9051,-9.62114 -1.0395,-17.01434 -0.3321,-18.274 1.0346,-1.84232 1.2743,-1.85724 1.8562,-0.11557 2.2818,6.82983 3.7264,19.33487 4.3898,37.99997 0.6113,17.1968 1.1661,21.6565 2.8613,23 1.1567,0.9167 2.5407,1.6667 3.0756,1.6667 1.1805,0 0,5.9394 13.9955,-70.66667 6.6418,-36.36582 12.3382,-64.16466 13.378,-65.28571 2.406,-2.59394 2.3747,-0.92768 -0.2122,11.28522 -1.0873,5.13305 -1.9768,9.54983 -1.9768,9.81505 0,0.4991 8.3909,-0.82131 12.1164,-1.90666 1.6359,-0.47661 2.5024,1.10801 3.8164,6.9795 1.7599,7.86388 1.1577,9.42954 -4.4553,11.58344 -0.8126,0.31186 9.6225,11.82036 23.1891,25.57446 13.5667,13.75409 22.8667,23.76167 20.6667,22.23907 -2.2,-1.5226 -12.4,-11.25066 -22.6667,-21.61792 -19.9812,-20.17701 -23.3241,-22.66645 -30.4372,-22.66645 -8.911,0 -10.0409,6.66992 -1.9015,11.2248 8.4041,4.70306 18.8514,13.6977 33.9294,29.21186 39.1312,40.26301 160.0044,158.76461 181.1169,177.56331 26.3271,23.4419 35.8207,32.5828 34.849,33.5546 -1.0844,1.0843 -2.476,0.1356 -134.5566,-91.7305 -32.0879,-22.3182 -51.0639,-35.5105 -88.6713,-61.645 -20.7192,-14.3985 -38.7728,-26.1791 -40.1193,-26.1791 -4.0107,0 -7.2359,10.0771 -4.5223,14.1296 0.5388,0.8046 75.1984,51.0571 165.9102,111.6722 142.6862,95.3453 165.104,109.8996 166.2159,107.9127 1.5338,-2.7408 0.9803,-3.4221 -26.3102,-32.3811 L 1444.6938,1206 l 22.5025,21.3333 c 30.1177,28.5529 51.4703,51.0544 51.4703,54.2397 0,1.4214 -0.45,2.3057 -1,1.9651 -0.55,-0.3406 -20.8,-13.9521 -45,-30.2478 -24.2,-16.2957 -101.6,-68.0526 -172,-115.0152 -70.4,-46.9627 -130.1,-87.0066 -132.6666,-88.9864 -2.5667,-1.9799 -5.7303,-3.9662 -7.0303,-4.414 -3.6387,-1.2535 -7.6197,3.6143 -7.7355,9.4586 -0.055,2.75 -0.3449,6.3116 -0.6453,7.9146 -0.3763,2.0081 1.7624,5.9476 6.8763,12.6667 10.0268,13.1737 11.0646,15.4383 13.2406,28.8921 1.0349,6.3991 3.6363,15.8897 5.7808,21.0901 6.8978,16.7273 7.0105,24.2312 0.4128,27.4729 -2.7388,1.3456 -3.4379,2.5113 -3.0134,5.0245 0.304,1.7999 0.604,5.6725 0.6666,8.6058 0.102,4.7689 -0.2034,5.2981 -2.886,5 -1.65,-0.1833 -4.35,-0.4833 -6,-0.6667 -3.2362,-0.3596 -3.5908,1.3281 -1.891,9 0.4875,2.2 0.3518,4.8312 -0.3016,5.8472 -2.2806,3.5464 -7.4296,0.4208 -13.9612,-8.4748 -3.5229,-4.7979 -6.9545,-8.3841 -7.6257,-7.9693 -0.6713,0.4149 -1.2205,4.0189 -1.2205,8.009 0,3.99 -0.5398,7.2546 -1.1995,7.2546 -2.0254,0 -13.8802,-13.8553 -18.5613,-21.6934 -15.0789,-25.2488 -16.9965,-64.5864 -4.6787,-95.9824 3.201,-8.1587 3.4089,-9.6352 1.9318,-13.7199 -1.1556,-3.196 -1.3769,-8.3686 -0.733,-17.14 1.2831,-17.4804 0.7409,-18.9521 -8.4752,-23.0019 -4.1896,-1.841 -8.9458,-4.9482 -10.5695,-6.9048 l -2.952,-3.5576 -0.048,6.8413 c -0.028,4.0517 -1.4708,10.5757 -3.5375,16 -3.3793,8.8692 -3.465,9.8119 -2.711,29.8254 1.0635,28.2306 3.5792,48.1663 13.5442,107.3333 7.9442,47.1684 10.5417,64.7608 18.0135,122 8.7738,67.2137 16.0981,104.0066 26.5002,133.121 2.9714,8.3166 5.9762,18.5166 6.6772,22.6667 1.8771,11.1122 2.9889,30.8036 1.5469,27.3978 -1.3887,-3.2802 -4.2915,-4.7037 -6.6363,-3.2546 -6.5561,4.0519 -4.2274,70.7379 3.8301,109.6841 4.207,20.3347 4.8489,25.6978 2.9341,24.5143 -1.797,-1.1105 -6.4447,-18.3358 -11.5472,-42.796 -9.4996,-45.5381 -22.114,-77.2089 -40.159,-100.8264 -6.3915,-8.3651 -17.7498,-19.0374 -23.3351,-21.9257 -4.2525,-2.1991 -7.8347,-1.2915 -7.8347,1.9851 0,3.8005 13.0009,58.138 18.846,78.767 11.3107,39.9192 45.3261,139.253 52.9182,154.535 2.6963,5.4275 8.0525,13.4002 11.9025,17.717 3.85,4.3169 7,8.4262 7,9.1318 0,1.6625 -2.9097,1.6314 -7.4087,-0.079 -5.9483,-2.2615 -6.628,-0.4134 -6.4697,17.5915 0.1243,14.1279 0.6786,18.123 3.946,28.4372 3.5904,11.3339 3.785,13.1677 3.5045,33.0367 -0.2959,20.9641 -0.2853,21.0475 3.0766,24.1631 11.0434,10.2348 38.7603,7.0561 48.3735,-5.5475 l 3.6164,-4.7414 -13.5681,-40.1221 c -15.4134,-45.5785 -15.5542,-46.3318 -18.467,-98.7888 -0.9848,-17.7361 -3.1394,-47.0182 -3.935,-53.4798 -0.3512,-2.8528 -2.1725,-16.5098 -4.0472,-30.3488 -1.8747,-13.8391 -3.0815,-25.4891 -2.6816,-25.8889 0.3998,-0.3998 0.727,-0.2059 0.727,0.4309 0,0.6369 2.0628,14.6869 4.584,31.2222 2.5213,16.5354 4.8947,32.7644 5.2743,36.0644 2.0672,17.9721 3.5641,40.5516 4.0219,60.6666 0.6419,28.2064 2.9665,38.7947 18.777,85.5261 6.2385,18.4393 11.3428,34.7883 11.3428,36.3311 0,1.5428 -4.5674,9.256 -10.1497,17.1406 -11.5812,16.3575 -14.9651,20.3356 -17.2982,20.3356 -3.0644,0 -28.6022,-20.2293 -30.7284,-24.3409 -1.7483,-3.3809 -1.9534,-6.8359 -1.1988,-20.2021 0.8661,-15.3413 0.676,-17.1913 -3.9172,-38.1237 -4.502,-20.5171 -4.7683,-22.9886 -3.9506,-36.6667 1.0724,-17.9363 -0.4653,-25.0222 -11.4292,-52.6666 -31.2607,-78.8212 -81.1244,-252.5032 -86.5616,-301.5059 -2.0268,-18.2662 -7.4936,-36.3373 -21.6909,-71.7019 -6.4305,-16.018 -19.7421,-54.1061 -19.7421,-56.4876 0,-0.6208 0.5532,-0.7868 1.2294,-0.3688 1.1365,0.7023 2.7704,5.3091 8.7713,24.7308 1.2462,4.0334 6.6396,18.4334 11.9853,32 5.3458,13.5667 11.3099,29.7667 13.2537,36 3.1372,10.0602 5.9269,14.6667 8.8821,14.6667 1.2322,0 3.1408,-8.6386 6.6283,-30 1.5564,-9.5333 5.4183,-25.4333 8.582,-35.3333 7.5651,-23.6734 9.2298,-32.6517 8.2343,-44.4122 -1.4458,-17.0808 -6.7861,-28.8927 -26.3286,-58.2353 -21.5369,-32.3369 -26.2566,-46.99 -28.5657,-88.6859 -0.4061,-7.3333 -1.4033,-21.1736 -2.2159,-30.7561 -1.152,-13.5831 -1.1156,-18.0995 0.1654,-20.493 1.7701,-3.3076 25.056,-14.9939 51.7845,-25.98866 l 15.0728,-6.20021 7.6447,4.64391 c 4.2045,2.55415 10.3218,6.77186 13.5939,9.37276 3.272,2.6008 6.678,4.7346 7.5689,4.7417 2.7403,0.022 4.6293,-5.2369 3.7431,-10.4202 -0.6883,-4.02523 -2.0496,-5.69828 -7.6247,-9.37012 -6.9864,-4.60142 -7.0093,-6.79575 -0.072,-6.84296 4.2367,-0.0288 8.3334,-4.62713 8.3334,-9.35375 0,-3.64843 -0.3926,-4 -4.4667,-4 -4.4907,0 -41.6589,12.07131 -61.5333,19.98452 -26.932,10.72321 -54.55434,27.56391 -68.20949,41.58561 -14.66069,15.0543 -15.58929,19.0359 -11.77073,50.4697 3.84215,31.628 6.42841,42.1213 22.77858,92.4202 10.76954,33.1308 13.34494,43.0093 9.25134,35.4847 -3.0621,-5.6286 -18.85179,-54.0507 -23.9193,-73.3532 -5.12148,-19.5082 -10.53643,-46.0196 -12.23961,-59.9249 -0.58384,-4.7666 -1.17312,-9.1166 -1.30951,-9.6666 -0.13639,-0.55 -0.32299,-3.1354 -0.41465,-5.7454 -0.18417,-5.2437 -2.06176,-5.177 -3.39133,0.1204 -1.57632,6.2806 -6.29099,17.9583 -7.25033,17.9583 -0.52253,0 -1.97065,-1.7277 -3.21804,-3.8394 -2.50678,-4.2436 -7.08845,-6.1885 -8.13764,-3.4544 -1.43966,3.7517 -4.75225,31.6734 -6.16452,51.9605 -1.41941,20.3897 -4.98941,47.7349 -15.23116,116.6666 -7.50021,50.4799 -8.93864,66.9372 -9.55613,109.3334 -1.64464,112.9191 -1.42812,107.55 -4.97385,123.3333 -1.81218,8.0667 -5.71781,23.0667 -8.67917,33.3333 -9.81782,34.0372 -15.8502,63.0649 -18.2877,88 -0.5018,5.1334 -1.09565,9.6472 -1.31966,10.0309 -0.22401,0.3836 -0.90601,8.4836 -1.51555,18 -1.96522,30.6818 -1.16403,95.1606 1.56525,125.9691 0.29235,3.3 0.86633,13.5 1.27552,22.6667 0.40919,9.1667 1.11533,22.2074 1.56919,28.9794 0.80674,12.0372 0.75533,12.3387 -2.29677,13.4677 -6.63062,2.4528 -7.88777,0.817 -7.89185,-10.2693 -0.004,-10.6487 -3.409,-64.0028 -4.81915,-75.5111 -1.54649,-12.621 -7.49651,-16.5794 -12.52598,-8.3334 -6.66083,10.9208 -13.00202,39.68 -14.62603,66.3334 -0.60321,9.9 -1.69197,19.5 -2.41946,21.3333 -5.01359,12.6347 -22.20573,16.95 -72.78309,18.269 -25.78841,0.6726 -30.42211,0.507 -29.9379,-1.07 z m 83.78202,-14.8372 c 4.03333,-1.8205 8.32241,-4.4467 9.53128,-5.836 3.03162,-3.4839 7.37216,-21.9388 9.8451,-41.8591 2.5637,-20.6515 6.38185,-34.6018 13.29029,-48.5586 4.20959,-8.5045 6.738,-11.8217 11.99999,-15.7438 3.66667,-2.7329 7.3196,-6.5389 8.11763,-8.4578 0.91904,-2.2097 1.32382,-12.8524 1.10415,-29.0309 -0.28407,-20.9214 0.32694,-31.452 3.37743,-58.2089 2.04833,-17.9667 4.12392,-37.1667 4.61241,-42.6667 1.2203,-13.7395 4.84309,-49.2906 6.84415,-67.1629 2.67596,-23.9002 3.52265,-75.8665 1.47593,-90.586 -0.85893,-6.1772 -1.66441,-7.9709 -3.97125,-8.8432 -2.405,-0.9094 -3.2711,-0.3888 -5.12769,3.0823 -4.23785,7.9231 -30.58803,31.5098 -35.20155,31.5098 -2.06356,0 -2.66139,-4.8307 -0.68753,-5.5556 0.66569,-0.2444 5.15425,-6.3552 9.97458,-13.5796 6.55754,-9.8279 8.46626,-13.6886 7.58077,-15.3333 -0.6509,-1.209 -4.54442,-3.9506 -8.65226,-6.0924 -4.10784,-2.1418 -10.15952,-6.8152 -13.44818,-10.3854 -9.161,-9.9451 -11.16702,-7.717 -15.25718,16.9463 -4.89452,29.5135 -8.16552,80.8223 -7.39514,116 0.45344,20.7051 0.83096,26.7059 2.68428,42.6667 0.34061,2.9333 0.95393,8.3333 1.36292,12 0.40899,3.6666 1.57154,13.5666 2.58344,22 1.1912,9.9275 1.6985,25.4397 1.43898,44 -0.45769,32.7311 -0.87654,34.8712 -13.04744,66.6666 -9.95487,26.0062 -9.89959,25.7974 -20.64671,78 -0.45292,2.2 -3.42559,7.8936 -6.60594,12.6525 -6.20675,9.2873 -7.0486,13.6132 -3.60579,18.5285 6.02209,8.5977 23.38646,10.3641 37.82333,3.8475 z m 35.36399,-172.5553 c -2.01049,-23.6657 -3.70869,-33.7045 -7.52319,-44.4732 -4.63623,-13.0884 -6.1688,-27.7726 -4.03559,-38.6666 0.78978,-4.0334 3.50291,-16.6334 6.02918,-28 2.52627,-11.3667 7.14016,-33.1167 10.25309,-48.3334 3.11293,-15.2166 6.2604,-27.6666 6.99438,-27.6666 1.23721,0 0.41789,41.8824 -0.99116,50.6666 -0.29408,1.8334 -0.9196,9.6334 -1.39005,17.3334 -1.01864,16.6724 -4.33795,59.7893 -5.54286,72 -0.73682,7.467 -0.74954,25.1021 -0.0348,48.275 0.10645,3.4513 -0.49559,6.9643 -1.33786,7.8065 -1.15297,1.153 -1.75125,-1.0566 -2.42112,-8.9417 z m 247.02381,-230.5613 c 7.7188,-5.4064 14.464,-30.6968 15.8152,-59.2968 1.6973,-35.9265 -5.5746,-63.626 -21.1888,-80.7104 -14.5419,-15.9111 -21.3514,-7.0004 -29.1122,38.0953 -5.9815,34.757 -0.9715,64.5172 15.2324,90.4832 4.7691,7.6423 11.228,13.4985 14.9022,13.5118 0.7535,0 2.7116,-0.9346 4.3512,-2.0831 z m -10.9673,-43.5785 c 0.4406,-8.25 1.0028,-15.6726 1.2492,-16.4947 0.9018,-3.0088 -2.2038,-22.4763 -4.7339,-29.675 -3.0848,-8.7768 -3.1642,-9.6289 -0.8133,-8.7267 0.9841,0.3776 3.1712,3.2088 4.8604,6.2915 1.6891,3.0827 4.316,6.9841 5.8375,8.6698 5.3432,5.9198 4.5097,25.4601 -1.9827,46.4799 -3.9374,12.748 -5.3369,10.6744 -4.4172,-6.5448 z m -218.27196,11.887 c 4.53864,-10.9221 10.52484,-31.4653 11.72912,-40.2514 0.68658,-5.0092 0.2615,-6.7979 -2.66727,-11.2235 -3.49845,-5.2865 -11.94782,-11.0891 -18.26446,-12.5431 -5.81882,-1.3393 -11.59925,3.4241 -16.27164,13.4087 -3.59949,7.692 -4.14833,10.3191 -4.10182,19.6345 0.0643,12.8837 2.81226,20.8769 10.97653,31.9285 5.48513,7.4249 9.76885,10.4486 13.04026,9.2044 0.8741,-0.3324 3.37577,-4.9035 5.55928,-10.1581 z m -10.15543,-15.887 c -3.36274,-4.2032 -4.4987,-21.3172 -1.73011,-26.0652 1.1928,-2.0456 1.33149,-2.0065 1.41348,0.3985 0.22749,6.6736 1.82686,13.7372 4.13908,18.2802 1.38477,2.7208 2.51777,5.8708 2.51777,7 0,2.463 -4.46135,2.7349 -6.34022,0.3865 z M 1160.5576,1180.524 c 4.3534,-1.6706 1.1639,-11.4695 -10.7201,-32.9344 -5.4634,-9.8679 -6.9622,-13.6591 -5.8376,-14.7664 1.9021,-1.8732 3.4577,0.1223 11.7613,15.0868 3.4313,6.1838 8.2768,13.3019 10.7678,15.8179 4.0247,4.0652 4.6713,4.3203 5.8069,2.2912 2.053,-3.6685 0.065,-9.8846 -7.1734,-22.4342 -7.1701,-12.4305 -7.97,-16.4331 -1.6261,-8.1367 8.2185,10.7482 12.0186,14.3412 14.2585,13.4817 3.9032,-1.4978 2.399,-5.7199 -7.0551,-19.8027 -11.8501,-17.652 -12.5358,-18.4649 -15.5535,-18.4386 -6.5822,0.057 -16.4858,9.1058 -19.5772,17.8871 -0.2406,0.6833 -3.8478,-0.7089 -8.016,-3.0937 -4.1682,-2.3848 -8.9319,-4.1439 -10.5859,-3.909 -2.7277,0.3873 -2.9925,1.1088 -2.8486,7.7603 0.2188,10.1144 7.3782,28.2254 13.9374,35.2572 2.7671,2.9664 5.3605,5.0641 5.7631,4.6615 0.4026,-0.4027 -1.0336,-6.9991 -3.1915,-14.6587 -4.2072,-14.9333 -4.9068,-20.4508 -2.4911,-19.6456 0.8304,0.2768 7.4861,10.8268 14.7905,23.4445 7.3044,12.6176 13.7759,22.9411 14.3811,22.9411 0.6052,0 2.0495,-0.3642 3.2095,-0.8093 z m 9.9523,-74.048 c -2.7634,-14.0309 -3.5279,-15.9478 -10.4128,-26.1088 -7.077,-10.4445 -9.6243,-12.6231 -11.4,-9.7499 -0.4364,0.7061 0.5107,8.2821 2.1048,16.8355 2.6227,14.073 3.3562,16.0607 7.7148,20.9066 8.079,8.9822 13.7737,14.4612 14.3899,13.8451 0.3221,-0.3222 -0.7563,-7.4 -2.3967,-15.7285 z m -29.0094,6.585 8.4995,-4.6942 -0.2201,-8.5167 c -0.121,-4.6842 -1.6434,-13.0168 -3.3831,-18.5168 -2.8105,-8.885 -3.5597,-10.0463 -6.7188,-10.416 -3.2936,-0.3853 -3.7126,0.1548 -5.6883,7.3334 -1.173,4.2621 -2.7501,9.2362 -3.5046,11.0536 -1.2876,3.1012 -1.4579,3.1507 -2.7706,0.8049 -0.9028,-1.6132 -1.0353,-6.3303 -0.3738,-13.3043 1.5972,-16.8361 1.5675,-17.3499 -1.0326,-17.8709 -3.068,-0.6147 -5.3882,4.9519 -9.7762,23.4546 -3.6447,15.3686 -5.437,30.6629 -4.0247,34.3433 0.749,1.9519 2.2958,2.1911 10.6848,1.6528 8.0153,-0.5144 11.3632,-1.4879 18.3085,-5.3237 z M 1169.5932,1534 c 0.027,-2.2 0.326,-2.9386 0.6641,-1.6413 0.338,1.2973 0.3158,3.0973 -0.049,4 -0.3653,0.9027 -0.6419,-0.1587 -0.6147,-2.3587 z M 1168,1526.6667 c 0,-0.9778 0.4,-1.3778 0.8888,-0.8889 0.4889,0.4889 0.4889,1.2889 0,1.7778 -0.4888,0.4888 -0.8888,0.089 -0.8888,-0.8889 z m 0,-3.3334 c 0,-0.3666 0.3,-0.6666 0.6666,-0.6666 0.3667,0 0.6667,0.3 0.6667,0.6666 0,0.3667 -0.3,0.6667 -0.6667,0.6667 -0.3666,0 -0.6666,-0.3 -0.6666,-0.6667 z M 334.66665,1310.0499 c 0,-2.1314 21.07452,-64.7224 26.27954,-78.0499 14.70392,-37.6495 43.02706,-89.3409 103.74072,-189.3333 C 480.93918,1015.9 502.20882,979.6 511.95279,962 c 28.00794,-50.58924 41.95053,-75.11115 49.75114,-87.50121 8.31681,-13.20998 24.08707,-33.44099 24.72928,-31.72419 0.23829,0.63699 -6.81312,17.36475 -15.66978,37.1728 -25.22642,56.41928 -31.23732,73.09566 -37.26481,103.38593 -5.98853,30.09447 -9.8983,79.98637 -7.20956,91.99997 l 1.19364,5.3334 17.05914,-34 C 591.77505,952.52779 624.99426,902.71091 671.31911,856.54629 686.2819,841.63524 712.22346,820 715.13963,820 c 1.46832,0 -5.0526,12.02317 -13.81776,25.47696 -28.88649,44.33837 -78.37133,167.78084 -97.2998,242.71924 -9.51972,37.6889 -11.70967,44.7319 -14.20687,45.6902 -6.68599,2.5657 -7.47977,-7.9995 -2.45703,-32.703 6.90444,-33.9583 24.67103,-96.3548 37.73242,-132.51673 2.91361,-8.06667 7.75748,-21.56667 10.76414,-30 l 5.46665,-15.33334 -4.68181,5.33334 c -6.63573,7.55914 -19.04963,26.3819 -38.25191,58 C 589.25762,1001.7 577.75799,1020.3 572.83291,1028 c -4.92507,7.7 -17.88548,32.0159 -28.8009,54.0354 -18.807,37.939 -24.08754,47.2979 -26.68673,47.2979 -2.4384,0 -6.44383,-9.1878 -8.4284,-19.3333 -2.14176,-10.9491 -4.29169,-33.4977 -5.50087,-57.6936 -0.37638,-7.5314 -1.34672,-14.9312 -2.15629,-16.4439 -1.40274,-2.621 -1.59218,-2.6416 -4.02797,-0.4373 -1.4058,1.2723 -7.2833,8.9721 -13.06109,17.1107 -36.12751,50.8892 -62.43322,96.2764 -102.46906,176.7974 -22.43666,45.1252 -47.03495,87.3383 -47.03495,80.7166 z m 712.87845,-54.1924 c -0.2848,-1.0216 -1.8319,-6.6575 -3.4382,-12.5242 -2.9708,-10.8502 -9.3424,-26.1679 -23.8885,-57.4287 -10.3467,-22.2359 -19.2438,-48.5713 -16.4092,-48.5713 0.6563,0 5.2484,9.15 10.2045,20.3334 5.1985,11.73 12.0224,24.5644 16.128,30.3333 3.9142,5.5 9.8367,14.2552 13.1609,19.4561 l 6.0442,9.456 0.1088,19.6506 c 0.099,17.8908 -0.5303,24.2474 -1.9105,19.2948 z M 648.40961,1082.0443 c -2.6842,-1.1674 -5.38565,-3.9807 -7.31174,-7.6145 -2.60731,-4.9191 -3.04876,-7.716 -3.01416,-19.0965 0.06,-19.7332 2.83844,-26.8759 24.65731,-63.3881 38.32147,-64.12796 74.81831,-108.78037 125.34663,-153.35652 13.5686,-11.97024 21.69656,-17.63095 33.30007,-23.19178 18.01335,-8.63266 17.6752,-6.77687 -2.63446,14.45798 -16.93229,17.70362 -19.39799,22.04145 -17.44668,30.69332 0.58047,2.57373 3.2275,7.6385 5.88228,11.25504 10.29353,14.02259 10.32156,17.66202 0.29947,38.88413 -11.50182,24.35547 -21.50028,65.3481 -27.47534,112.64593 -0.83377,6.6 -2.02917,12.5214 -2.65645,13.1587 -1.86449,1.8941 -6.58976,-9.0234 -10.17223,-23.5023 -1.83838,-7.43 -3.8414,-14.40058 -4.45117,-15.49017 -0.83547,-1.49291 -2.64482,0.41549 -7.34281,7.74487 -7.68223,11.985 -14.52628,19.3695 -33.38355,36.0197 -29.02613,25.6289 -45.20647,37.207 -56.81308,40.6538 -8.47612,2.5172 -11.23883,2.538 -16.78409,0.1264 z m 31.48894,-29.4187 c 38.61115,-18.5039 88.99458,-84.24373 105.23741,-137.31281 5.2317,-17.09318 7.3721,-29.20538 5.70987,-32.3113 -6.09602,-11.39051 -17.35422,-9.20859 -34.30571,6.6487 -23.16123,21.6662 -62.73393,79.73925 -82.00992,120.34981 -8.75662,18.4484 -15.36547,43.387 -12.308,46.4444 2.00628,2.0063 8.40671,0.6236 17.67635,-3.8188 z m 578.76805,-27.9589 c 0,-0.3667 0.3,-0.6667 0.6667,-0.6667 0.3666,0 0.6666,0.3 0.6666,0.6667 0,0.3666 -0.3,0.6666 -0.6666,0.6666 -0.3667,0 -0.6667,-0.3 -0.6667,-0.6666 z m -469.3333,-4.1043 c 0,-0.424 4.68184,-5.3965 10.40409,-11.05 17.09353,-16.88798 31.53651,-41.66379 44.01973,-75.5124 2.97495,-8.06667 8.50953,-23.06667 12.29906,-33.33333 19.28832,-52.25633 40.29498,-78.72672 77.22489,-97.3107 14.00525,-7.04777 19.43587,-8.85464 29.71889,-9.88805 9.35751,-0.94039 10.70404,-0.5069 6.52749,2.1014 -6.8507,4.27833 -37.21866,29.5066 -48.49902,40.29069 -15.58839,14.9026 -25.84645,27.28213 -32.15638,38.80666 -16.91986,30.90262 -22.6155,71.568 -12.73617,90.93307 1.42172,2.78681 3.32753,5.06693 4.23512,5.06693 2.55197,0 14.16915,-6.49836 22.29563,-12.47162 4.03333,-2.96464 18.13333,-15.92343 31.33333,-28.7973 21.58604,-21.05272 72.92554,-68.32698 89.12124,-82.06442 5.6121,-4.76025 7.6936,-8.34201 19.3705,-33.33333 22.9196,-49.05319 45.5761,-83.67855 72.0441,-110.10335 14.4887,-14.465 29.2293,-26.56332 32.3648,-26.56332 1.0182,0 -30.8399,48.08464 -39.7526,60 -9.9307,13.27637 -26.5613,42.80894 -24.9912,44.3791 0.358,0.35795 3.1691,-0.095 6.247,-1.00657 13.1299,-3.88861 28.9484,0.5266 35.2141,9.82886 9.3603,13.8967 8.0788,25.11202 -9.3108,81.48303 -9.3307,30.24713 -11.2161,47.58008 -6.3431,58.31558 2.2211,4.89311 3.1359,5.66667 6.7015,5.66667 5.893,0 17.6259,-7.92009 28.9761,-19.5597 12.034,-12.34081 26.2686,-33.62562 40.4206,-60.4403 22.8769,-43.34629 35.6001,-64.59814 50.6886,-84.66667 10.3095,-13.71215 21.2491,-24.95828 21.2491,-21.84448 0,4.29666 -6.7071,21.07574 -13.7999,34.52277 -22.1702,42.0319 -33.04,89.45896 -29.1206,127.05916 2.2636,21.71524 4.1659,30.12162 7.1815,31.73555 3.8812,2.07717 10.6774,-0.77776 18.4176,-7.73692 13.1479,-11.82108 24.6391,-30.9062 43.5938,-72.40274 14.3022,-31.31096 21.4897,-44.47301 37.2748,-68.25865 15.5968,-23.50193 27.7905,-36.31789 39.7862,-41.8165 11.1512,-5.11153 15.3407,-6.48362 15.3119,-5.0147 -0.012,0.59941 -4.5831,7.08985 -10.1586,14.42318 -15.1851,19.97275 -40.2809,58.65016 -38.931,60.00006 0.3004,0.30044 4.6239,-2.70336 9.6078,-6.67512 11.4566,-9.12996 27.2743,-18.28396 38.2948,-22.16186 7.2965,-2.56749 11.3603,-3.01715 27.8751,-3.08438 15.9179,-0.0648 20.078,0.3288 23.5489,2.22799 6.7609,3.69943 9.7844,8.52964 9.7844,15.63112 0,13.89521 -6.5784,28.35296 -26.7475,58.78478 -20.706,31.24174 -26.846,45.32864 -28.7065,65.86032 -1.063,11.73049 0.4603,13.48477 7.781,8.96038 8.0343,-4.96551 37.5658,-36.58691 54.3627,-58.20996 25.6061,-32.96343 51.934,-58.8367 85.5089,-84.03231 18.6906,-14.02606 34.7658,-22.12847 54.157,-27.297 20.9651,-5.58804 25.3162,-5.14065 9.9883,1.02701 -14.4216,5.80296 -29.7404,18.4201 -38.6481,31.83209 -5.8341,8.78412 -6.1263,11.00181 -2.0284,15.39272 4.5657,4.89216 6.9708,14.75451 5.6368,23.11439 -1.5832,9.92129 -5.7842,19.4441 -14.8903,33.75342 -12.4311,19.53411 -19.6535,32.3733 -21.1192,37.54302 -2.8082,9.90545 -4.1037,31.22137 -3.7073,61.00131 0.2269,17.05072 0,31.00072 -0.4966,31.00002 -3.73,-0.01 -12.681,-21.20916 -17.2617,-40.89096 l -3.1552,-13.5563 -14.0281,13.67989 c -11.4581,11.17365 -15.3265,14.11115 -21.115,16.0338 -14.3153,4.75476 -30.3705,1.24231 -41.3708,-9.05081 -6.0177,-5.63082 -12.16,-15.33156 -12.16,-19.20458 0,-2.87312 -0.8778,-2.46401 -10.6115,4.94566 -13.0074,9.90163 -19.364,11.43504 -26.7218,6.44613 -6.9491,-4.71171 -9.6196,-11.5372 -10.3308,-26.40416 -1.0217,-21.35742 2.6545,-32.07322 22.0047,-64.14218 14.2374,-23.59554 20.3282,-38.28187 20.6222,-49.72436 0.1366,-5.31558 -0.3999,-6.99295 -2.8785,-9 -3.8665,-3.13089 -5.7493,-3.09458 -16.9438,0.3268 -22.0331,6.73395 -37.6924,16.72021 -63.1405,40.26592 -22.9549,21.23889 -24.4169,24.12878 -32.7959,64.82447 -5.3398,25.93509 -11.318,48.20301 -12.7098,47.34281 -2.6719,-1.65133 -4.1425,-16.92556 -3.4342,-35.66906 l 0.7474,-19.7756 -9.8039,13.90772 c -5.3921,7.64925 -12.603,16.3716 -16.0241,19.38299 -7.9962,7.03853 -18.5185,12.26049 -24.705,12.26049 -4.1921,0 -5.8824,-1.06526 -12.165,-7.66667 -6.9314,-7.28305 -7.4054,-8.23375 -9.4719,-19 -2.9703,-15.47442 -5.3162,-36.28165 -5.2239,-46.33333 0.042,-4.58334 -0.1403,-8.33334 -0.4053,-8.33334 -0.2651,0 -2.7244,3.75 -5.4652,8.33334 -9.0008,15.05199 -13.684,20.51635 -26.5296,30.95446 -6.9771,5.66946 -13.8938,12.0048 -15.3704,14.07854 -5.4035,7.58848 -15.1761,13.33151 -26.7602,15.726 l -10.8414,2.241 -3.7575,-4.50053 c -7.0879,-8.48956 -11.949,-19.46612 -13.5816,-30.66785 -2.0699,-14.20139 0.6301,-29.46705 10.3431,-58.47829 10.7371,-32.07025 12.3003,-46.0075 5.8801,-52.4277 -5.3293,-5.32923 -20.8792,-1.72602 -31.5943,7.32097 -5.1498,4.34816 -11.3846,15.21383 -19.1084,33.30129 -4.9513,11.59483 -12.3743,25.83964 -35.4968,68.11877 -6.5069,11.89766 -13.7927,26.97657 -24.31216,50.31737 -3.99185,8.85716 -7.63703,15.29016 -8.39763,14.82008 -0.79741,-0.49282 -1.09443,-4.71905 -0.73036,-10.39202 0.47232,-7.35975 3.00929,-16.60565 11.01764,-40.15341 5.72221,-16.82561 12.92051,-37.19202 15.99631,-45.25868 L 1019.5589,866 990.77944,894.76025 c -15.82871,15.81814 -38.37948,38.71552 -50.11281,50.88306 -35.79014,37.1146 -56.96332,49.76724 -79.79309,47.68264 -6.86647,-0.62698 -8.33293,-1.30066 -12.33333,-5.66586 -3.49365,-3.81224 -4.54024,-4.39019 -4.54024,-2.50723 0,6.07528 -17.52438,24.75114 -27.77452,29.59954 -9.3975,4.4451 -26.89215,8.2248 -26.89215,5.81 z m 664.6666,-61.03109 c 9.4548,-4.40966 26.1895,-18.28817 36.305,-30.10864 17.7955,-20.79479 40.5985,-60.18346 44.1572,-76.27477 2.4606,-11.12555 -0.1334,-20.27433 -6.1785,-21.79155 -11.1024,-2.78653 -45.4444,26.60238 -75.9486,64.99465 -17.8016,22.40483 -27.6844,47.06196 -23.7766,59.32106 2.2692,7.11865 14.4812,8.9711 25.4415,3.85925 z m -204.1266,56.13539 -2.54,-3 3,2.54 c 2.8192,2.3869 3.607,3.46 2.54,3.46 -0.253,0 -1.603,-1.35 -3,-3 z m -12,-12 -2.54,-3 3,2.54 c 2.8192,2.3869 3.607,3.46 2.54,3.46 -0.253,0 -1.603,-1.35 -3,-3 z M 936.64721,969.19215 c -0.73923,-5.37485 -0.48491,-7.25925 1.20822,-8.95238 1.97049,-1.97049 2.14453,-1.41798 2.14453,6.80785 0,10.56204 -2.01756,11.85254 -3.35275,2.14453 z m 82.73929,-20.85882 c 3.0409,-18.08588 7.7263,-33.40805 13.3973,-43.8117 6.2684,-11.49953 7.801,-13.41601 6.5479,-8.1883 -2.4147,10.07352 -3.0875,24.05137 -1.7371,36.08751 1.6933,15.09185 1.5964,15.29746 -8.8322,18.7421 -9.7183,3.21003 -10.3589,3.0167 -9.3759,-2.82961 z M 878.99877,936.53885 c 1.27536,-22.68057 9.07622,-47.15262 20.7853,-65.20552 6.19928,-9.55795 40.8481,-45.25736 42.77166,-44.06854 2.72123,1.68182 4.46967,25.65861 3.80647,52.19902 l -0.68699,27.49253 -6.11363,6.11362 c -4.32828,4.32828 -6.29249,5.55143 -6.72612,4.1885 C 928.04448,902.2002 923.71685,896 917.99741,896 c -5.77797,0 -10.73266,3.50696 -17.36878,12.29374 -6.67436,8.83739 -19.29533,33.15404 -19.29533,37.17603 0,1.30507 -0.69235,2.80074 -1.53854,3.32372 -1.1413,0.70536 -1.34682,-2.45872 -0.79599,-12.25464 z m 105.00119,-6.29615 c 0,-7.75713 11.84505,-33.50876 14.28898,-31.06483 0.86005,0.86005 -10.4575,30.71691 -12.4235,32.77451 -1.61951,1.69495 -1.86548,1.46953 -1.86548,-1.70968 z m 238.46664,-3.56115 c -0.11,-1.47485 -0.26,-3.34435 -0.3333,-4.15444 -0.1363,-1.50598 12.4414,-6.74983 20.3633,-8.48977 4.1729,-0.91651 4.3256,-0.81946 2.9008,1.84284 -0.8272,1.54567 -6.28,5.21164 -12.1174,8.14661 -9.8481,4.95152 -10.6278,5.14295 -10.8134,2.65476 z M 1113.8565,925 c -1.0913,-3.3073 -0.8931,-17.59628 0.2971,-21.4307 0.7241,-2.33263 0.8604,-2.33489 3.3785,-0.0561 6.2721,5.67622 10.7404,-5.62048 4.5306,-11.4543 -1.8678,-1.75475 -3.377,-4.13587 -3.3537,-5.29137 0.035,-1.75262 0.3503,-1.69467 1.8993,0.34957 3.9645,5.23168 6.5342,2.2562 10.1887,-11.79724 1.905,-7.32595 5.407,-17.73885 7.7821,-23.13977 2.7902,-6.34474 4.0103,-10.8273 3.4478,-12.66666 -1.3894,-4.54282 -4.6449,-22.59017 -4.6023,-25.51348 0.021,-1.46667 1.6997,2.18648 3.7297,8.11811 2.03,5.93163 4.9889,12.60766 6.5754,14.83562 3.6318,5.10045 10.435,8.3796 17.385,8.3796 7.0408,0 10.848,-1.54473 16.8968,-6.85569 l 4.9745,-4.36766 -4.3156,8.61168 c -6.2724,12.51649 -5.6879,12.14866 -14.4177,9.07456 -9.667,-3.4041 -18.8672,-3.67744 -23.4178,-0.69575 -1.907,1.24953 -4.6714,4.63202 -6.143,7.51665 -3.7662,7.38243 -8.9284,28.55322 -11.5536,47.38288 -1.967,14.10932 -2.6388,16.35372 -5.6845,18.99338 -4.3724,3.78945 -6.3486,3.79117 -7.5973,0.007 z m -37.7853,-26.22237 c -2.4396,-3.80169 -5.837,-10.3817 -7.5498,-14.62224 -5.1673,-12.79299 -7.4185,-40.89186 -3.4698,-43.30904 0.5216,-0.31929 0.9526,2.34973 0.9577,5.93116 0.01,6.32076 0.3087,6.81531 10.2201,16.86709 l 10.2107,10.3554 -1.8589,8.66667 c -1.0225,4.76666 -1.9137,10.76666 -1.9805,13.33333 -0.067,2.56667 -0.5653,5.79687 -1.1078,7.17823 -0.8354,2.12761 -1.6643,1.45486 -5.4217,-4.4006 z m 1.8784,-49.57097 c -10.4134,-10.16424 -12.8758,-13.31112 -10.283,-13.14108 0.55,0.0361 6.3184,5.05843 12.8185,11.1608 7.4563,6.99994 11.2518,11.44551 10.283,12.04425 -0.9166,0.56647 -6.0839,-3.49044 -12.8185,-10.06397 z m 108.717,-16.53999 c 0,-0.36667 0.3,-0.66667 0.6667,-0.66667 0.3667,0 0.6667,0.3 0.6667,0.66667 0,0.36666 -0.3,0.66666 -0.6667,0.66666 -0.3667,0 -0.6667,-0.3 -0.6667,-0.66666 z m 2.6568,-6.83886 c 2.0523,-9.52162 2.5817,-10.53568 2.1117,-4.04519 -0.2569,3.54711 -1.0874,7.06962 -1.8456,7.82781 -0.9491,0.94914 -1.032,-0.22906 -0.2661,-3.78262 z M 899.9676,810.33333 c -0.1086,-14.5406 -5.1605,-41.29045 -10.15345,-53.76261 -1.79683,-4.48841 -6.15055,-11.57112 -9.67493,-15.73936 -7.8703,-9.3081 -9.5932,-14.73187 -10.64797,-33.52018 l -0.82462,-14.68882 -11.93541,-15.31118 c -25.20458,-32.33337 -26.77623,-34.03727 -34.99624,-37.94108 -11.32567,-5.37874 -30.8912,-9.9438 -46.26329,-10.79423 -15.72495,-0.86995 -19.47172,-1.49161 -19.47172,-3.23069 0,-1.7609 11.08627,-4.75473 29.99979,-8.1014 14.28475,-2.52763 17.91089,-3.89114 17.97979,-6.76083 0.0112,-0.46771 -2.17364,-4.06771 -4.85527,-8 -10.50862,-15.40962 -163.81377,-212.43747 -177.15633,-227.68139 -4.74905,-5.42581 -8.63464,-10.37581 -8.63464,-11 0,-3.41122 5.88377,0.25358 19.15293,11.9297 8.16589,7.18553 20.54707,17.81634 27.51373,23.62403 15.23907,12.70389 47.06091,40.95023 100,88.76401 21.63333,19.5389 50.43333,45.27797 64,57.19794 25.51252,22.41586 37.32415,33.47303 23.33333,21.84294 -24.98199,-20.76668 -50.43039,-43.02159 -92.66666,-81.03802 -81.7911,-73.61933 -90.6521,-81.24149 -107.66667,-92.61401 -6.78333,-4.53398 -12.33333,-7.87841 -12.33333,-7.43206 0,0.93022 26.72103,35.59628 71.60587,92.89659 17.07779,21.80164 47.64533,61.40164 67.92785,88 27.29652,35.79647 83.90705,108.11393 94.62781,120.88287 0.88345,1.05223 5.73108,-5.9606 6.52818,-9.44401 1.07068,-4.67896 -0.0453,-6.62944 -15.11121,-26.41154 -17.53782,-23.02778 -34.66192,-44.03274 -78.26306,-96 -54.50514,-64.96348 -80.32309,-97.03614 -84.45811,-104.91908 -2.67324,-5.09623 0.52154,-4.49863 5.92599,1.10848 2.86917,2.97676 14.81668,14.48409 26.55001,25.57185 77.15819,72.91292 122.63401,116.0975 140.13232,133.07194 11.07278,10.74128 22.58568,21.15315 25.58422,23.1375 l 5.4519,3.60789 4.74907,-3.78929 c 7.91659,-6.31666 6.94209,-8.81431 -9.58418,-24.56419 -7.88334,-7.51298 -12.13462,-11.82547 -9.44729,-9.58332 3.38736,2.82622 6.8636,4.31531 11.33333,4.85476 20.8702,2.51882 20.64441,2.53033 32.44729,-1.65356 17.9622,-6.36725 26.42975,-10.70255 29.84193,-15.27877 8.60461,-11.54001 14.02204,-38.69229 12.96198,-64.96573 -0.0755,-1.87084 -4.03725,-10.19446 -8.80391,-18.49693 -4.76667,-8.30248 -8.66667,-15.62179 -8.66667,-16.26515 0,-2.95291 -3.63096,0.19355 -22.48263,19.48267 -11.10122,11.35882 -20.18403,20.26545 -20.18403,19.79252 0,-1.47369 5.7918,-8.48638 21.84094,-26.44492 17.87054,-19.99664 17.53544,-18.89314 11.55572,-38.05301 C 944.56479,455.67615 942.3737,447.3 941.86087,444 c -0.51284,-3.3 -1.59133,-6.44081 -2.39667,-6.97958 -0.80533,-0.53877 -19.61424,-0.98877 -41.79757,-1 -39.34167,-0.0199 -52.01114,-1.45072 -29.33333,-3.3127 23.35402,-1.91751 59.30091,-6.14531 65.66089,-7.72254 l 6.66089,-1.65185 2.34316,-8.66666 c 1.28873,-4.76667 2.94955,-11.16128 3.69069,-14.21025 0.74114,-3.04897 3.43932,-8.5845 5.99595,-12.30119 2.55663,-3.71669 4.64255,-8.12208 4.63539,-9.78975 -0.0267,-6.2027 -6.93628,-17.45143 -27.02617,-43.99801 -20.20654,-26.70072 -24.37196,-32.73409 -23.32344,-33.78262 0.28605,-0.28605 13.60615,14.31534 29.60021,32.44753 15.99407,18.13219 29.8405,33.4093 30.76984,33.94913 0.94553,0.54923 5.13299,-0.74582 9.50782,-2.94047 4.29995,-2.15708 11.83021,-5.69395 16.73391,-7.85971 8.12756,-3.5896 9.02956,-4.39058 10.20266,-9.05954 0.7077,-2.81698 1.6705,-20.72179 2.1394,-39.78846 0.4689,-19.06666 1.0991,-36.46666 1.4005,-38.66666 0.3014,-2.2 1.1766,-8.31494 1.9448,-13.58874 0.7683,-5.27381 1.4566,-11.87381 1.5297,-14.66667 0.1179,-4.50362 0.2537,-4.70093 1.2005,-1.74459 0.5871,1.83333 1.1273,28.34792 1.2004,58.92131 0.084,35.02258 0.6203,55.88918 1.4502,56.40213 0.7245,0.44778 4.6243,1.6755 8.6661,2.72825 7.7648,2.02247 15.1384,6.14037 24.1539,13.48908 3.0089,2.45257 5.9255,4.45923 6.4814,4.45923 0.5559,0 9.0795,-8.3749 18.9414,-18.61087 15.9746,-16.58072 30.3923,-29.26268 31.698,-27.88202 0.2564,0.27109 -10.5676,12.19289 -24.0533,26.49289 -13.4858,14.3 -24.5237,26.97672 -24.5288,28.1705 -0.01,1.19377 0.9258,4.4087 2.0688,7.14428 1.143,2.73558 2.8185,10.45885 3.7233,17.16283 l 1.6451,12.18905 8.6101,-0.0772 c 4.7355,-0.0425 24.81,-0.4445 44.61,-0.89344 19.8,-0.44894 39,-0.38424 42.6667,0.14378 l 6.6667,0.96004 -5.3334,0.88124 c -2.9333,0.48468 -12.5333,1.22409 -21.3333,1.64314 -8.8,0.41905 -19,1.04097 -22.6667,1.38205 -3.6666,0.34109 -9.9666,0.89056 -14,1.22106 -11.593,0.94995 -28.5706,2.57155 -29.6666,2.83358 -0.55,0.13149 -3.1,0.31408 -5.6667,0.40574 L 1062.6666,428 v 7.15868 c 0,7.94971 -3.1355,27.5341 -5.9135,36.9357 l -1.8008,6.09438 14.6165,21.90562 c 15.2815,22.90214 19.6277,30.13584 17.208,28.64037 -1.946,-1.20271 -16.1143,-19.93406 -20.7262,-27.40142 C 1061.1108,493.33514 1056.0006,488 1053.2795,488 c -1.2698,0 -5.0135,4.14168 -8.7379,9.66667 l -6.5162,9.66666 0.298,12.70182 c 0.4012,17.10099 4.9635,33.76925 9.4157,34.40042 1.6899,0.23956 14.6925,-3.20634 28.8946,-7.65756 14.2022,-4.45122 29.5203,-8.95586 34.0403,-10.0103 7.6144,-1.77631 9.1651,-2.83068 21.1054,-14.35055 17.7602,-17.1348 32.0487,-29.93571 87.5539,-78.43892 38.4799,-33.62564 103.6696,-91.89969 161.2272,-144.12338 22.4348,-20.35575 66.9236,-59.88735 92.7263,-82.39411 16.4744,-14.37008 34.4614,-30.32742 39.9711,-35.46075 7.8151,-7.28138 10.12,-8.81337 10.4836,-6.96827 0.2564,1.30078 -1.2306,4.38698 -3.3044,6.85822 -9.4826,11.29996 -73.7625,85.78538 -136.4468,158.11005 -37.8174,43.63333 -82.1259,94.93333 -98.4633,114 -16.3375,19.06667 -33.1913,38.5918 -37.4529,43.38919 l -7.7484,8.72252 9.9959,-0.3732 c 5.4977,-0.20526 18.9311,-2.2036 29.852,-4.44075 30.1993,-6.18632 42.029,-6.74053 35.493,-1.6628 -2.4701,1.91898 -19.3994,8.70464 -45.8103,18.36184 -23.5453,8.60935 -56.2083,24.52155 -78.0904,38.04271 -13.9395,8.61335 -17.1019,11.5482 -17.0891,15.85958 0.018,6.12704 4.8382,19.26516 9.678,26.37974 12.429,18.27068 15.4416,44.40017 10.8368,93.99008 -1.317,14.18294 -1.8578,28.71216 -1.4042,37.73109 0.894,17.78052 -0.6847,58.16429 -1.8765,48 -0.43,-3.66667 -0.6895,-14.76667 -0.5768,-24.66667 0.1219,-10.70746 -0.3985,-19.46026 -1.2846,-21.60433 l -1.4896,-3.60434 -3.7482,6.93767 c -2.0615,3.81572 -9.3859,17.43767 -16.2764,30.271 -15.0145,27.96383 -14.5537,27.22472 -16.3002,26.14536 -1.4147,-0.87438 1.5314,-8.83366 10.418,-28.14536 13.1242,-28.5207 16.906,-47.55577 16.4238,-82.66666 -0.4848,-35.29884 -10.8364,-59.83655 -28.9399,-68.60033 -7.3006,-3.53414 -11.6681,-3.45701 -15.1182,0.26699 -5.9871,6.46243 -16.2353,25.34715 -17.7805,32.76465 -1.5468,7.42544 -1.0368,29.00942 0.9144,38.69703 0.8135,4.03899 0.3629,4.95133 -4.7558,9.63026 -3.1099,2.84273 -5.1732,4.13497 -4.5852,2.87166 0.5881,-1.26331 1.2056,-11.64618 1.3725,-23.07304 0.3387,-23.20583 2.0258,-30.54288 10.7055,-46.55722 13.9213,-25.68538 36.6095,-48.24954 80.1103,-79.67221 3.6587,-2.64287 4.3333,-3.96974 4.3333,-8.52315 0,-11.87914 -8.5578,-17.07598 -23.8672,-14.49371 -12.2439,2.0652 -67.9912,16.2358 -107.4661,27.3172 l -32,8.98303 -17.0572,16.86109 c -22.1436,21.88909 -34.57084,40.27074 -52.70757,77.96199 -3.69497,7.6788 -7.45482,14.41675 -8.35522,14.97322 -2.10472,1.30079 -1.08185,-9.08526 2.89187,-29.36341 4.2966,-21.92586 2.32163,-43.41037 -3.98594,-43.3607 -1.16562,0.009 -7.81931,4.23233 -14.78598,9.38478 -6.96666,5.15245 -16.56666,11.54218 -21.33333,14.19941 -5.04996,2.81515 -13.15556,9.33157 -19.42336,15.61522 -17.54357,17.58795 -26.20179,34.75065 -26.29204,52.11724 -0.1172,22.5548 14.29999,37.54977 35.7154,37.1467 10.0406,-0.18898 21.80972,-3.84898 27.97746,-8.70052 4.86267,-3.82498 10.246,-12.60731 12.08284,-19.71186 2.21754,-8.57705 5.25664,-9.0516 3.99277,-0.62346 -3.50955,23.40335 -21.32367,47.1143 -43.14096,57.42147 -0.23167,0.10945 2.98927,8.50945 7.15765,18.66666 4.16838,10.15722 7.8509,19.16237 8.18338,20.01145 0.33568,0.85725 -3.44037,3.67425 -8.49098,6.33443 -5.00252,2.63485 -12.25767,7.19015 -16.12254,10.12288 -3.86488,2.93274 -7.31488,5.33225 -7.66667,5.33225 -0.35179,0 -0.65418,-1.95 -0.67198,-4.33334 z m 95.19129,-233.65519 c 10.14081,-4.86436 19.85401,-9.38274 21.58491,-10.04083 4.4761,-1.7018 8.0847,-9.68439 10.5873,-23.42017 1.1909,-6.53609 2.5143,-13.0768 2.9411,-14.53491 0.4267,-1.45811 -4.0594,3.09972 -9.9692,10.1285 -7.1178,8.46555 -10.9754,14.24149 -11.4275,17.11016 -0.9779,6.20439 -1.7328,6.25819 -2.7027,0.19261 -0.467,-2.92005 -2.244,-6.931 -3.9491,-8.91323 -4.35889,-5.06753 -8.61746,-3.631 -19.11302,6.44735 -7.80994,7.49949 -8.78167,9.07362 -11.88797,19.25757 -1.86054,6.09976 -2.97402,11.7519 -2.4744,12.56031 1.47108,2.38026 6.88355,0.57942 26.41058,-8.78736 z M 1138.1301,531.3083 c 9.0385,-1.69359 11.1052,-2.61012 14.5365,-6.44652 2.2,-2.45973 17.8,-16.99665 34.6667,-32.30426 16.8667,-15.30761 49.2666,-44.95435 72,-65.88164 81.5189,-75.04265 124.5423,-113.89693 134.9958,-121.91415 l 3.353,-2.57161 -1.688,3.23827 c -3.107,5.96048 -20.8205,27.03356 -41.3884,49.23828 -21.2367,22.92672 -35.915,39.79165 -70.9158,81.48011 -11.4581,13.64739 -29.6263,34.64739 -40.3737,46.66667 -10.7475,12.01927 -19.8778,22.66377 -20.2895,23.65445 -0.8609,2.07137 1.8405,4.14853 5.4341,4.17835 4.3285,0.0359 9.7791,-5.02848 22.6301,-21.02678 6.9008,-8.59071 31.0866,-36.61947 53.7464,-62.28614 122.3807,-138.62039 158.8859,-181.69803 178.3354,-210.44323 9.0115,-13.31846 9.0701,-13.46045 3.3333,-8.07763 -3.2117,3.01353 -79.9394,71.68105 -170.5061,152.59449 -176.2963,157.50547 -190.6082,170.30295 -192.6666,172.27926 -0.8608,0.82643 -0.342,0.98176 1.4635,0.43826 1.5383,-0.46304 7.5383,-1.73032 13.3333,-2.81618 z m -135.6907,-3.09965 c 1.4233,-1.77326 1.5557,-7.07119 0.6717,-26.87532 -0.6056,-13.56666 -0.8888,-32.44979 -0.6294,-41.96249 l 0.4717,-17.29583 -13.14337,11.87104 c -21.36684,19.29841 -31.1434,29.17741 -31.1434,31.46973 0,1.18468 3.0012,8.2911 6.66934,15.79205 6.76842,13.84071 17.26745,26.5665 24.26084,29.40637 4.00194,1.6251 10.59929,0.38935 12.84259,-2.40555 z m 15.8775,-1.51741 c 4.5199,-2.75585 16.6664,-18.27907 24.8703,-31.78408 7.6065,-12.52165 7.4095,-13.0403 -12.1872,-32.08756 l -17,-16.52332 -0.8434,13.1852 c -1.2195,19.06462 -1.3334,69.85273 -0.1566,69.84687 0.55,-0.003 2.9426,-1.18944 5.3169,-2.63711 z M 980.13814,450.4153 c 12.40776,-14.65472 15.12826,-18.43407 11.77972,-16.36456 -0.77849,0.48113 -11.72849,1.26654 -24.33333,1.74536 l -22.9179,0.87057 0.268,5.33333 c 0.1474,2.93333 2.24503,12.36537 4.6614,20.96007 l 4.39341,15.62674 6.47677,-6.2934 c 3.56223,-3.46138 12.4146,-13.30652 19.67193,-21.87811 z m 73.65196,18.27078 c 2.4337,-2.43375 4.377,-11.26853 5.587,-25.4006 1.2298,-14.36374 0.8583,-14.65017 -15.5515,-11.98885 -6.8708,1.11429 -14.7423,2.02839 -17.4923,2.03134 -2.75,0.003 -5,0.33152 -5,0.73016 0,1.09422 25.4944,34.46114 27.1915,35.58812 2.141,1.42171 3.049,1.25612 5.2653,-0.96017 z m -83.40425,-46.11981 c 7.12109,-0.78855 14.89192,-1.83855 17.2685,-2.33333 l 4.32105,-0.89961 -12.69465,-18.66666 c -7.41877,-10.90881 -13.71261,-18.8341 -15.14402,-19.06954 -3.51554,-0.57823 -8.47457,5.94258 -13.25848,17.43406 -4.36967,10.49642 -6.37645,19.54547 -5.08238,22.91775 0.95293,2.48329 6.48503,2.62217 24.58998,0.61733 z m 88.10155,-5.45387 c 1.2052,-3.25799 -0.2663,-13.29518 -3.3507,-22.85448 -3.167,-9.81534 -5.8381,-8.44311 -17.6656,9.07541 L 1027.5689,418 l 8.5489,0.76987 c 18.5747,1.67275 21.2099,1.47749 22.3696,-1.65747 z m -23.9147,-23.68648 c 16.6843,-16.45251 16.9732,-17.85886 5.2295,-25.4492 -4.5087,-2.91415 -11.3772,-6.30069 -15.2632,-7.52566 -6.0883,-1.91914 -7.3773,-1.96849 -9.3194,-0.35672 -2.0117,1.66956 -2.1624,4.14179 -1.4034,23.01536 0.4677,11.62969 1.1858,21.6876 1.5958,22.35093 1.9665,3.18184 6.8235,0.13116 19.1607,-12.03471 z m -31.4131,8.90741 c 1.2801,-4.77677 0.9259,-38.80024 -0.4262,-40.93764 -1.0628,-1.68004 -2.2566,-1.62514 -8.9796,0.41294 -12.4686,3.77986 -21.50733,7.62579 -22.20694,9.44895 -0.35764,0.93201 0.41961,3.32548 1.72723,5.31884 4.09435,6.24147 25.49304,28.75691 27.33061,28.75691 0.963,0 2.1127,-1.35 2.5549,-3 z m 126.5083,383.3946 c -3.7256,-5.68472 -5.6713,-15.72775 -2.8667,-14.79677 1.6685,0.55388 6.9987,16.52692 6.1914,18.55396 -0.1793,0.45015 -1.6754,-1.24058 -3.3247,-3.75719 z m -142.54088,-4.06126 c 0.35205,-1.28334 1.0216,-4.73334 1.48789,-7.66667 2.33589,-14.69453 10.17328,-32.68015 18.23839,-41.85439 2.8307,-3.21991 5.1467,-6.87993 5.1467,-8.13337 0,-1.25345 -3.5583,-5.37389 -7.9073,-9.15653 -5.23315,-4.55164 -9.17867,-9.46661 -11.66668,-14.53329 -3.46189,-7.0499 -3.75939,-8.86918 -3.75939,-22.98909 0,-13.83093 0.34884,-16.07754 3.56024,-22.92866 3.76349,-8.02894 15.86223,-21.47065 16.79813,-18.6628 0.2985,0.8953 -2.4677,4.92165 -6.1471,8.94743 -10.48129,11.46824 -15.03177,26.66366 -12.34203,41.21382 2.02846,10.97291 6.33292,18.73811 14.55013,26.24813 6.1795,5.64771 7.8799,6.51542 12.7683,6.51542 7.068,0 11.6524,-4.14323 21.6263,-19.54489 3.8746,-5.98301 9.1117,-12.45484 11.6381,-14.38184 2.5264,-1.927 10.9583,-5.63495 18.7374,-8.2399 15.9493,-5.34083 15.9669,-5.36644 11.8171,-17.13709 -3.2525,-9.22565 -16.866,-22.4582 -26.2266,-25.49277 -9.2125,-2.98657 -11.0765,-5.07766 -3.704,-4.15532 12.786,1.59961 25.3248,12.98525 31.7503,28.8302 1.6627,4.10022 3.9704,7.65152 5.1282,7.89178 2.5501,0.52918 11.3789,-7.98246 11.3789,-10.97017 0,-1.17334 0.6,-2.13334 1.3333,-2.13334 3.345,0 0.503,8.33264 -9.6571,28.3138 -16.0456,31.55586 -25.2641,40.62286 -45.6762,44.92564 -10.1373,2.13687 -17.6934,6.94798 -28.8487,18.36834 -12.6481,12.94875 -17.81331,20.36144 -21.12757,30.3208 -2.54198,7.63865 -3.32489,8.73809 -6.22233,8.73809 -2.5116,0 -3.15942,-0.56521 -2.67438,-2.33333 z m 133.73638,-39.24522 c -1.2284,-4.58683 -1.0343,-10.15845 0.3843,-11.03523 1.7361,-1.07294 3.4196,11.14639 1.7639,12.80214 -0.8727,0.87272 -1.6019,0.27294 -2.1482,-1.76691 z m 146.3254,-16.08812 c 10.2553,-23.49618 13.7454,-30.98671 18.2482,-39.16414 2.8763,-5.22361 5.2296,-10.03765 5.2296,-10.69786 0,-0.66021 -9.6932,-4.41031 -21.5405,-8.33356 -23.7177,-7.85414 -24.3114,-8.71713 -7.255,-10.5446 11.4282,-1.22445 27.3199,0.10051 37.916,3.16125 l 7.1205,2.05679 13.2959,-7.59417 c 22.093,-12.61869 44.2407,-20.08204 62.9629,-21.21735 27.1899,-1.64877 30.3682,-1.75654 29.6158,-1.00421 -0.4403,0.44037 -7.5465,2.82458 -15.7914,5.29824 -15.867,4.76042 -33.9663,13.05327 -53.5302,24.52673 l -11.8726,6.96286 3.8726,3.20326 c 14.2294,11.76983 21.5653,19.29889 29.1934,29.96224 4.7804,6.68246 8.4801,12.36147 8.2216,12.62001 -0.2586,0.25854 -6.068,-2.88865 -12.9098,-6.99377 -15.7932,-9.47594 -21.9619,-12.65612 -35.7941,-18.45319 l -11.1616,-4.67783 -5.1014,2.60253 c -4.378,2.23347 -35.6989,34.97509 -38.975,40.74291 -2.1436,3.77386 -3.5809,1.75056 -1.7449,-2.45614 z M 1024,630.66667 c 0,-0.73334 0.9,-1.33334 2,-1.33334 1.1,0 2,0.6 2,1.33334 0,0.73333 -0.9,1.33333 -2,1.33333 -1.1,0 -2,-0.6 -2,-1.33333 z M 877.87328,593 l -2.53998,-3 3,2.53998 c 1.65,1.39699 3,2.74699 3,3 0,1.06701 -1.07306,0.27928 -3.46002,-2.53998 z m -8.53998,-7 c 0,-0.36667 0.3,-0.66667 0.66666,-0.66667 0.36667,0 0.66667,0.3 0.66667,0.66667 0,0.36667 -0.3,0.66667 -0.66667,0.66667 -0.36666,0 -0.66666,-0.3 -0.66666,-0.66667 z m -2.66667,-2.66667 c 0,-0.36666 0.3,-0.66666 0.66667,-0.66666 0.36666,0 0.66666,0.3 0.66666,0.66666 0,0.36667 -0.3,0.66667 -0.66666,0.66667 -0.36667,0 -0.66667,-0.3 -0.66667,-0.66667 z m -7.46065,-6.20601 c -0.58944,-0.95373 -0.36576,-1.17741 0.58797,-0.58798 0.84664,0.52326 1.53935,1.21596 1.53935,1.53935 0,1.11219 -1.1774,0.58564 -2.12732,-0.95137 z M 855.99997,574 c 0,-0.36667 0.3,-0.66667 0.66666,-0.66667 0.36667,0 0.66667,0.3 0.66667,0.66667 0,0.36667 -0.3,0.66667 -0.66667,0.66667 -0.36666,0 -0.66666,-0.3 -0.66666,-0.66667 z"
       id="path1" />
  </g>
</svg>
